<svg width="18" height="18" viewBox="0 0 18 18" fill="none" xmlns="http://www.w3.org/2000/svg">
<path d="M6.2666 7.4C6.2666 8.03652 6.51946 8.64697 6.96954 9.09705C7.41963 9.54714 8.03008 9.8 8.6666 9.8C9.30312 9.8 9.91357 9.54714 10.3637 9.09705C10.8137 8.64697 11.0666 8.03652 11.0666 7.4C11.0666 6.76348 10.8137 6.15303 10.3637 5.70294C9.91357 5.25286 9.30312 5 8.6666 5C8.03008 5 7.41963 5.25286 6.96954 5.70294C6.51946 6.15303 6.2666 6.76348 6.2666 7.4Z" stroke="#79A8F7"/>
<path d="M2.56641 14.1762C4.33939 12.8886 6.47519 12.1967 8.6664 12.2002C10.9448 12.2002 13.0528 12.933 14.7664 14.1762" stroke="#79A8F7"/>
<path d="M15.3489 4.6C14.6207 3.49309 13.6288 2.58456 12.4623 1.95615C11.2958 1.32775 9.99146 0.999179 8.6665 1C4.2481 1 0.666504 4.5816 0.666504 9C0.666504 13.4184 4.2481 17 8.6665 17C13.0849 17 16.6665 13.4184 16.6665 9C16.6665 8.452 16.6113 7.9168 16.5065 7.4" stroke="#79A8F7"/>
<path d="M15.4666 1.3999V4.5999H12.2666" stroke="#79A8F7"/>
</svg>
