<svg width="18" height="18" viewBox="0 0 18 18" fill="none" xmlns="http://www.w3.org/2000/svg">
<path d="M6.59998 7.55088C6.59998 8.1874 6.85283 8.79785 7.30292 9.24793C7.75301 9.69802 8.36345 9.95088 8.99997 9.95088C9.63649 9.95088 10.2469 9.69802 10.697 9.24793C11.1471 8.79785 11.4 8.1874 11.4 7.55088C11.4 6.91436 11.1471 6.30391 10.697 5.85382C10.2469 5.40374 9.63649 5.15088 8.99997 5.15088C8.36345 5.15088 7.75301 5.40374 7.30292 5.85382C6.85283 6.30391 6.59998 6.91436 6.59998 7.55088Z" stroke="#216EF2"/>
<path d="M2.90002 14.3269C4.67301 13.0393 6.80881 12.3474 9.00002 12.3509C11.2784 12.3509 13.3864 13.0837 15.1 14.3269" stroke="#216EF2"/>
<path d="M15.6824 4.75088C14.9542 3.64396 13.9623 2.73544 12.7958 2.10703C11.6293 1.47863 10.325 1.15006 9 1.15088C4.5816 1.15088 1 4.73248 1 9.15088C1 13.5693 4.5816 17.1509 9 17.1509C13.4184 17.1509 17 13.5693 17 9.15088C17 8.60288 16.9448 8.06768 16.84 7.55088" stroke="#216EF2"/>
<path d="M15.8 1.55084V4.75084H12.6" stroke="#216EF2"/>
</svg>
