<svg width="18" height="18" viewBox="0 0 18 18" fill="none" xmlns="http://www.w3.org/2000/svg">
<path d="M1 2.6001V5.8001H4.2" stroke="#79A8F7"/>
<path d="M16.9998 15.4002V12.2002H13.7998" stroke="#79A8F7"/>
<path d="M1 9C1 13.4184 4.5816 17 9 17C10.4046 17.0006 11.7846 16.6312 13.001 15.929C14.2175 15.2268 15.2276 14.2166 15.9296 13M17 9C17 4.5816 13.4184 1 9 1C7.59541 0.999431 6.21544 1.36883 4.99896 2.07102C3.78248 2.77321 2.77242 3.78342 2.0704 5" stroke="#79A8F7" stroke-linecap="square"/>
<path d="M5.67529 11.9578V6.75781H12.3249V11.9578H5.67529Z" stroke="#79A8F7"/>
<path d="M9 4.75781V6.75781" stroke="#79A8F7"/>
<path d="M7.8335 8.55762V10.1576" stroke="#79A8F7"/>
<path d="M10.1665 8.55762V10.1576" stroke="#79A8F7"/>
</svg>
