<svg width="16" height="17" viewBox="0 0 16 17" fill="none" xmlns="http://www.w3.org/2000/svg">
<path d="M9.81818 11.9276C10.6183 11.5193 11.2577 10.8536 11.6334 10.0377C12.009 9.22176 12.0992 8.30313 11.8892 7.42975C11.6792 6.55638 11.1814 5.77909 10.4759 5.22309C9.77038 4.66709 8.89826 4.36475 8 4.36475C7.10174 4.36475 6.22962 4.66709 5.52412 5.22309C4.81861 5.77909 4.32078 6.55638 4.11081 7.42975C3.90085 8.30313 3.99096 9.22176 4.36665 10.0377C4.74233 10.8536 5.38172 11.5193 6.18182 11.9276V13.4549H9.81818V11.9276Z" stroke="#79A8F7"/>
<path d="M2.54541 2.90918L3.63632 4.00009" stroke="#79A8F7"/>
<path d="M12.3638 4.00009L13.4547 2.90918" stroke="#79A8F7"/>
<path d="M8 0.36377V1.81832" stroke="#79A8F7"/>
<path d="M0 8.36377H1.45455" stroke="#79A8F7"/>
<path d="M14.5454 8.36377H16" stroke="#79A8F7"/>
<path d="M6.18164 15.6367H9.818" stroke="#79A8F7"/>
</svg>
