<svg width="18" height="18" viewBox="0 0 18 18" fill="none" xmlns="http://www.w3.org/2000/svg">
<path d="M1 9.15088C1 11.2726 1.84285 13.3074 3.34315 14.8077C4.84344 16.308 6.87827 17.1509 9 17.1509C11.1217 17.1509 13.1566 16.308 14.6569 14.8077C16.1571 13.3074 17 11.2726 17 9.15088C17 7.02915 16.1571 4.99432 14.6569 3.49402C13.1566 1.99373 11.1217 1.15088 9 1.15088C6.87827 1.15088 4.84344 1.99373 3.34315 3.49402C1.84285 4.99432 1 7.02915 1 9.15088Z" stroke="#79A8F7"/>
<path d="M6 6.15088L12 12.1509" stroke="#79A8F7"/>
<path d="M12 6.15088L6 12.1509" stroke="#79A8F7"/>
</svg>
