<svg width="24" height="25" viewBox="0 0 24 25" fill="none" xmlns="http://www.w3.org/2000/svg">
<g clip-path="url(#clip0_3188_1792)">
<path d="M24 12.7253C24 6.09792 18.6274 0.725342 12 0.725342C5.37258 0.725342 0 6.09792 0 12.7253C0 18.7148 4.3882 23.6793 10.125 24.5796V16.1941H7.07812V12.7253H10.125V10.0816C10.125 7.07409 11.9166 5.41284 14.6576 5.41284C15.9705 5.41284 17.3438 5.64722 17.3438 5.64722V8.60034H15.8306C14.34 8.60034 13.875 9.52542 13.875 10.4744V12.7253H17.2031L16.6711 16.1941H13.875V24.5796C19.6118 23.6793 24 18.715 24 12.7253Z" fill="white"/>
</g>
<defs>
<clipPath id="clip0_3188_1792">
<rect width="24" height="24" fill="white" transform="translate(0 0.817383)"/>
</clipPath>
</defs>
</svg>
