<svg width="18" height="14" viewBox="0 0 18 14" fill="none" xmlns="http://www.w3.org/2000/svg">
<path d="M3.80002 4.28419C3.80002 4.65189 3.87244 5.01599 4.01316 5.35571C4.15387 5.69542 4.36012 6.00409 4.62012 6.26409C4.88012 6.52409 5.18879 6.73034 5.5285 6.87105C5.86822 7.01177 6.23232 7.08419 6.60002 7.08419C6.96772 7.08419 7.33182 7.01177 7.67153 6.87105C8.01124 6.73034 8.31991 6.52409 8.57992 6.26409C8.83992 6.00409 9.04617 5.69542 9.18688 5.35571C9.32759 5.01599 9.40002 4.65189 9.40002 4.28419C9.40002 3.91649 9.32759 3.55239 9.18688 3.21268C9.04617 2.87297 8.83992 2.5643 8.57992 2.30429C8.31991 2.04429 8.01124 1.83804 7.67153 1.69733C7.33182 1.55662 6.96772 1.48419 6.60002 1.48419C6.23232 1.48419 5.86822 1.55662 5.5285 1.69733C5.18879 1.83804 4.88012 2.04429 4.62012 2.30429C4.36012 2.5643 4.15387 2.87297 4.01316 3.21268C3.87244 3.55239 3.80002 3.91649 3.80002 4.28419Z" stroke="#216EF2"/>
<path d="M11.4 7.08419C12.1426 7.08419 12.8548 6.78919 13.3799 6.26409C13.905 5.73899 14.2 5.0268 14.2 4.28419C14.2 3.54159 13.905 2.82939 13.3799 2.30429C12.8548 1.77919 12.1426 1.48419 11.4 1.48419" stroke="#216EF2"/>
<path d="M6.6 9.48421C4.56 9.48421 2.648 10.0298 1 10.9826V13.4842H12.2V10.9826C10.4981 9.99808 8.56614 9.48114 6.6 9.48421Z" stroke="#216EF2"/>
<path d="M14.2 13.4842H17V10.9826C16.1231 10.4751 15.1811 10.0897 14.2 9.83698" stroke="#216EF2"/>
</svg>
