<svg width="24" height="25" viewBox="0 0 24 25" fill="none" xmlns="http://www.w3.org/2000/svg">
<g clip-path="url(#clip0_3188_1794)">
<path d="M20.4491 21.0649H16.8931V15.5508C16.8931 14.236 16.8694 12.5433 15.0436 12.5433C13.1915 12.5433 12.9081 13.9759 12.9081 15.4551V21.0645H9.35203V9.72537H12.7658V11.275H12.8136C13.1553 10.6966 13.649 10.2208 14.2421 9.89824C14.8352 9.57568 15.5056 9.41847 16.1819 9.44332C19.7861 9.44332 20.4506 11.7907 20.4506 14.8444L20.4491 21.0649ZM5.33963 8.17538C4.93148 8.17546 4.53247 8.05569 4.19307 7.83123C3.85367 7.60677 3.58913 7.2877 3.43287 6.91436C3.27661 6.54102 3.23566 6.13019 3.31521 5.73382C3.39477 5.33744 3.59125 4.97333 3.8798 4.68752C4.16835 4.40171 4.53602 4.20703 4.93631 4.12812C5.3366 4.04921 5.75152 4.0896 6.12863 4.24419C6.50573 4.39877 6.82807 4.66061 7.05489 4.99659C7.2817 5.33256 7.40281 5.72759 7.40288 6.13172C7.40293 6.40005 7.34959 6.66576 7.24593 6.91368C7.14227 7.16161 6.99032 7.38688 6.79873 7.57666C6.60714 7.76643 6.37966 7.91697 6.1293 8.0197C5.87895 8.12243 5.61062 8.17533 5.33963 8.17538ZM7.11765 21.0649H3.5579V9.72537H7.11765V21.0649ZM22.222 0.819002H1.77099C1.30681 0.813815 0.859518 0.99131 0.52744 1.31248C0.195362 1.63366 0.00566506 2.07223 0 2.53183V22.8654C0.00547117 23.3252 0.195057 23.7641 0.527123 24.0856C0.85919 24.4071 1.30658 24.585 1.77099 24.5801H22.222C22.6873 24.5859 23.1359 24.4085 23.4693 24.087C23.8027 23.7655 23.9936 23.3261 24 22.8654V2.53037C23.9934 2.06985 23.8024 1.63078 23.469 1.30961C23.1356 0.988449 22.6871 0.81146 22.222 0.817534" fill="white"/>
</g>
<defs>
<clipPath id="clip0_3188_1794">
<rect width="24" height="24" fill="white" transform="translate(0 0.817383)"/>
</clipPath>
</defs>
</svg>
