<svg width="17" height="17" viewBox="0 0 17 17" fill="none" xmlns="http://www.w3.org/2000/svg">
<path d="M6.9115 4.453C8.82321 4.453 11.2136 2.06259 11.2136 0.150879C11.2136 2.06259 13.604 4.453 15.5157 4.453C13.604 4.453 11.2136 6.84342 11.2136 8.75512C11.2136 6.84342 8.82321 4.453 6.9115 4.453Z" stroke="#216EF2"/>
<path d="M0 16.1508H8.21314L15.6441 13.8042V13.4976C15.6441 12.9566 15.4292 12.4377 15.0466 12.0551C14.664 11.6725 14.1451 11.4576 13.6041 11.4576C13.4007 11.4576 13.1989 11.4881 13.0041 11.5476L8.21314 13.022M8.21314 13.022H4.30212M8.21314 13.022V10.6754L3.29308 9.91823C2.95833 9.86669 2.6164 9.88814 2.29072 9.98113C1.96504 10.0741 1.66332 10.2364 1.40625 10.4569C1.14918 10.6775 0.942837 10.951 0.801369 11.2587C0.659902 11.5664 0.586656 11.9011 0.586653 12.2398" stroke="#216EF2"/>
</svg>
