<svg width="119" height="20" viewBox="0 0 119 20" fill="none" xmlns="http://www.w3.org/2000/svg">
<g clip-path="url(#clip0_1831_10402)">
<path d="M32.1481 17.147H23.7236V19.7328H32.1481V17.147Z" fill="white"/>
<path d="M30.7856 8.56014H22.8379V2.8897H32.1479V0.277344H19.9746V19.7328H22.8379V11.1725H30.7856V8.56014Z" fill="white"/>
<path d="M97.4426 17.147H89.0166V19.7328H97.4426V17.147Z" fill="white"/>
<path d="M85.2705 0.805719V19.2044V19.7328H88.1308V11.1725H96.0815V8.56014H88.1308V2.8897H97.4423V0.277344H85.2705V0.805719Z" fill="white"/>
<path d="M54.7897 0.277344L45.915 19.7328H48.92L55.2767 5.50206H55.4155L58.8351 13.1177H52.7913L51.7272 15.5072H59.8904L61.8017 19.7328H64.8037L55.9866 0.277344H54.7897Z" fill="white"/>
<path d="M109.255 0.277344H108.058L99.1836 19.7328H102.189L108.545 5.50206H108.684L112.104 13.1177H106.06L104.996 15.5072H113.159L115.07 19.7328H118.072L109.255 0.277344Z" fill="white"/>
<path d="M0 19.7328H2.80718V7.05479L0 3.71924V19.7328Z" fill="white"/>
<path d="M75.6015 17.1369L75.4805 17.1517V19.9559C77.9984 19.8255 80.3726 18.7428 82.1221 16.9273L80.1414 14.9644C78.9523 16.2298 77.3329 17.0048 75.6015 17.1369V17.1369Z" fill="white"/>
<path d="M69.1993 5.97153C69.2789 5.84755 69.366 5.72948 69.4531 5.6114C69.5077 5.53761 69.5594 5.46381 69.6169 5.38707C69.6745 5.31032 69.7247 5.26161 69.7778 5.19963C69.8796 5.08008 69.98 4.962 70.0877 4.84984L70.1468 4.79375C70.6096 4.32344 71.1375 3.92185 71.7142 3.60122C71.7349 3.58941 71.757 3.58055 71.7762 3.56875C71.9474 3.47724 72.1186 3.39016 72.2987 3.31194C72.4787 3.23372 72.6322 3.17763 72.8019 3.11859C72.8344 3.10679 72.8639 3.0935 72.8979 3.08317C73.6009 2.84678 74.3376 2.72615 75.0793 2.726C76.0363 2.72772 76.9826 2.92724 77.8588 3.31202C78.7351 3.6968 79.5223 4.25855 80.1712 4.962L82.1179 2.971C81.9541 2.8057 81.7784 2.65368 81.6028 2.50019C81.4272 2.34669 81.2604 2.21386 81.0862 2.08103C81.008 2.02052 80.9298 1.96148 80.8501 1.9054C80.732 1.81832 80.6095 1.73567 80.4899 1.65302C78.8509 0.579414 76.9353 0.00513271 74.976 3.1794e-07C72.3559 -0.000659805 69.8401 1.02664 67.9694 2.86109C66.0986 4.69555 65.0222 7.19072 64.9716 9.81033C64.9209 12.4299 65.9001 14.9648 67.6985 16.8702C69.4969 18.7756 71.9711 19.8994 74.5893 20V17.1515C74.5214 17.1515 74.455 17.1353 74.3856 17.1279H74.3147C70.7062 16.7486 68.0392 13.6285 68.0392 9.97714V9.94467C68.0361 8.56208 68.425 7.20695 69.1609 6.03647C69.1742 6.01433 69.186 5.99219 69.1993 5.97153Z" fill="white"/>
<path d="M34.6953 0.805719V2.36133V2.8897H39.7547V19.7328H42.6446V3.19226V0.277344H34.6953V0.805719Z" fill="white"/>
<path d="M47.7027 0.277344H43.5303V2.8897H47.7027V0.277344Z" fill="white"/>
<path d="M13.8411 0.277344H13.3127L13.3083 14.1406L1.67663 0.277344H0V2.32295L14.6071 19.7328H16.1479V0.277344H13.8411Z" fill="white"/>
<path d="M0 19.7331H2.80718V6.83368L0 3.48779V19.7331Z" fill="white"/>
</g>
<defs>
<clipPath id="clip0_1831_10402">
<rect width="118.073" height="20" fill="white"/>
</clipPath>
</defs>
</svg>
