<svg width="800" height="136" viewBox="0 0 800 136" fill="none" xmlns="http://www.w3.org/2000/svg">
<g clip-path="url(#clip0_9_57)">
<path d="M217.82 116.18H160.74V133.7H217.82V116.18Z" fill="#001831"/>
<path d="M208.59 58H154.74V19.58H217.82V1.88H135.34V133.7H154.74V75.7H208.59V58Z" fill="#001831"/>
<path d="M660.22 116.18H603.13V133.7H660.22V116.18Z" fill="#001831"/>
<path d="M577.75 5.46V130.12V133.7H597.13V75.7H651V58H597.13V19.58H660.22V1.88H577.75V5.46Z" fill="#001831"/>
<path d="M371.23 1.88L311.1 133.7H331.46L374.53 37.28H375.47L398.64 88.88H357.69L350.48 105.07H405.79L418.74 133.7H439.08L379.34 1.88H371.23Z" fill="#001831"/>
<path d="M740.26 1.88H732.15L672.02 133.7H692.38L735.45 37.28H736.39L759.56 88.88H718.61L711.4 105.07H766.71L779.66 133.7H800L740.26 1.88Z" fill="#001831"/>
<path d="M0 133.7H19.02V47.8L0 25.2V133.7Z" fill="#001831"/>
<path d="M512.24 116.11L511.42 116.21V135.21C528.48 134.326 544.566 126.991 556.42 114.69L543 101.39C534.943 109.964 523.971 115.215 512.24 116.11Z" fill="#001831"/>
<path d="M468.86 40.46C469.4 39.62 469.99 38.82 470.58 38.02C470.95 37.52 471.3 37.02 471.69 36.5C472.08 35.98 472.42 35.65 472.78 35.23C473.47 34.42 474.15 33.62 474.88 32.86L475.28 32.48C478.416 29.2934 481.992 26.5725 485.9 24.4C486.04 24.32 486.19 24.26 486.32 24.18C487.48 23.56 488.64 22.97 489.86 22.44C491.08 21.91 492.12 21.53 493.27 21.13C493.49 21.05 493.69 20.96 493.92 20.89C498.683 19.2883 503.675 18.471 508.7 18.47C515.184 18.4817 521.596 19.8335 527.533 22.4406C533.47 25.0476 538.804 28.8538 543.2 33.62L556.39 20.13C555.28 19.01 554.09 17.98 552.9 16.94C551.71 15.9 550.58 15 549.4 14.1C548.87 13.69 548.34 13.29 547.8 12.91C547 12.32 546.17 11.76 545.36 11.2C534.255 3.92581 521.275 0.0347728 508 -1.6605e-06C490.248 -0.00447431 473.202 6.95596 460.527 19.3853C447.852 31.8146 440.559 48.7207 440.216 66.4698C439.872 84.2188 446.506 101.394 458.692 114.304C470.877 127.214 487.641 134.828 505.38 135.51V116.21C504.92 116.21 504.47 116.1 504 116.05H503.52C479.07 113.48 461 92.34 461 67.6V67.38C460.979 58.0123 463.614 48.8306 468.6 40.9C468.69 40.75 468.77 40.6 468.86 40.46Z" fill="#001831"/>
<path d="M235.08 5.46V16V19.58H269.36V133.7H288.94V21.63V1.88H235.08V5.46Z" fill="#001831"/>
<path d="M323.21 1.88H294.94V19.58H323.21V1.88Z" fill="#001831"/>
<path d="M93.78 1.88H90.2L90.17 95.81L11.36 1.88H0V15.74L98.97 133.7H109.41V1.88H93.78Z" fill="#001831"/>
<path d="M0 133.7H19.02V46.3L0 23.63V133.7Z" fill="#001831"/>
</g>
<defs>
<clipPath id="clip0_9_57">
<rect width="800" height="135.51" fill="white"/>
</clipPath>
</defs>
</svg>
