<svg width="18" height="18" viewBox="0 0 18 18" fill="none" xmlns="http://www.w3.org/2000/svg">
<path d="M1 8.65088C1 10.64 1.79018 12.5477 3.1967 13.9542C4.60322 15.3607 6.51088 16.1509 8.5 16.1509C10.4891 16.1509 12.3968 15.3607 13.8033 13.9542C15.2098 12.5477 16 10.64 16 8.65088C16 6.66176 15.2098 4.7541 13.8033 3.34758C12.3968 1.94106 10.4891 1.15088 8.5 1.15088C6.51088 1.15088 4.60322 1.94106 3.1967 3.34758C1.79018 4.7541 1 6.66176 1 8.65088Z" stroke="#ABF57A"/>
<path d="M14 14.1509L17 17.1509" stroke="#ABF57A"/>
<path d="M13 6.54114L9.28351 10.2576L7.02027 7.99047L4 11.0107" stroke="#ABF57A"/>
</svg>
