<svg width="24" height="25" viewBox="0 0 24 25" fill="none" xmlns="http://www.w3.org/2000/svg">
<g clip-path="url(#clip0_3188_1799)">
<path d="M14.6596 15.2151C14.1939 14.7237 13.376 14.4088 12.4104 14.4088C11.4448 14.4088 10.6269 14.7237 10.1612 15.2151C9.91823 15.4715 9.78973 15.7343 9.74928 16.1087C9.67084 16.8338 9.71487 17.458 9.79984 18.4561C9.88074 19.4072 10.0344 20.6755 10.2349 21.9673C10.3776 22.8866 10.4936 23.3827 10.5991 23.738C10.7703 24.3138 11.41 24.8174 12.4104 24.8174C13.4108 24.8174 14.0505 24.3137 14.2216 23.738C14.3272 23.3827 14.4431 22.8866 14.5858 21.9673C14.7864 20.6755 14.94 19.4072 15.0209 18.4561C15.1059 17.4579 15.1499 16.8336 15.0715 16.1087C15.031 15.7344 14.9025 15.4715 14.6596 15.2151ZM9.8731 10.8403C9.8731 12.2429 11.0102 13.38 12.4128 13.38C13.8155 13.38 14.9526 12.2429 14.9526 10.8403C14.9526 9.43755 13.8155 8.30046 12.4128 8.30046C11.0102 8.30046 9.8731 9.43755 9.8731 10.8403ZM12.3813 0.817428C6.44149 0.834324 1.57436 5.65311 1.50086 11.5926C1.44116 16.404 4.51252 20.5197 8.80125 22.0282C8.90534 22.0648 9.01103 21.9784 8.99463 21.8692C8.93839 21.4957 8.88536 21.1203 8.83665 20.7511C8.81938 20.6207 8.73626 20.5082 8.61577 20.4555C5.22598 18.9746 2.85894 15.575 2.89693 11.637C2.94675 6.46905 7.16679 2.25592 12.3347 2.21411C17.618 2.17144 21.9296 6.45684 21.9296 11.7303C21.9296 15.6288 19.573 18.9868 16.2096 20.4559C16.0891 20.5086 16.0064 20.6214 15.9893 20.7518C15.9406 21.1208 15.8876 21.496 15.8314 21.8692C15.8149 21.9784 15.9206 22.0648 16.0247 22.0283C20.2725 20.5342 23.326 16.4825 23.326 11.7305C23.3257 5.70232 18.4132 0.800162 12.3813 0.817428ZM12.1841 5.82392C15.5514 5.69356 18.3322 8.39493 18.3322 11.7337C18.3322 13.4316 17.6128 14.9646 16.463 16.0442C16.3654 16.1357 16.313 16.2657 16.3206 16.3993C16.3435 16.8054 16.3351 17.2 16.3081 17.6457C16.3008 17.7645 16.434 17.8404 16.5323 17.7734C18.4604 16.4558 19.7286 14.2402 19.7286 11.7337C19.7286 7.60662 16.291 4.26728 12.1288 4.42859C8.26071 4.57855 5.15741 7.76769 5.10783 11.6385C5.07527 14.1842 6.35122 16.4395 8.30412 17.7736C8.40216 17.8406 8.53499 17.7646 8.52771 17.646C8.50058 17.2 8.49232 16.8054 8.51513 16.3993C8.52266 16.2658 8.47036 16.1358 8.37306 16.0445C7.18738 14.9313 6.45925 13.3361 6.50563 11.5749C6.58727 8.47571 9.08602 5.94392 12.1841 5.82392Z" fill="white"/>
</g>
<defs>
<clipPath id="clip0_3188_1799">
<rect width="24" height="24" fill="white" transform="translate(0 0.817383)"/>
</clipPath>
</defs>
</svg>
