<svg width="24" height="24" viewBox="0 0 24 24" fill="none" xmlns="http://www.w3.org/2000/svg">
<path d="M14.6596 14.3977C14.1939 13.9064 13.376 13.5914 12.4105 13.5914C11.4448 13.5914 10.6269 13.9064 10.1612 14.3977C9.91826 14.6541 9.78976 14.9169 9.74931 15.2913C9.67087 16.0164 9.7149 16.6407 9.79987 17.6388C9.88077 18.5899 10.0344 19.8582 10.235 21.1499C10.3777 22.0692 10.4936 22.5653 10.5992 22.9206C10.7703 23.4965 11.41 24 12.4105 24C13.4108 24 14.0505 23.4963 14.2217 22.9206C14.3272 22.5653 14.4432 22.0692 14.5859 21.1499C14.7864 19.8582 14.9401 18.5899 15.021 17.6388C15.1059 16.6405 15.15 16.0163 15.0715 15.2913C15.0311 14.917 14.9026 14.6541 14.6596 14.3977ZM9.87313 10.0229C9.87313 11.4255 11.0102 12.5626 12.4128 12.5626C13.8156 12.5626 14.9526 11.4255 14.9526 10.0229C14.9526 8.62016 13.8156 7.48308 12.4128 7.48308C11.0102 7.48308 9.87313 8.62016 9.87313 10.0229ZM12.3814 4.54696e-05C6.44153 0.0169414 1.57439 4.83573 1.50089 10.7752C1.44119 15.5866 4.51255 19.7023 8.80128 21.2108C8.90537 21.2474 9.01106 21.161 8.99466 21.0518C8.93842 20.6783 8.88539 20.3029 8.83668 19.9338C8.81941 19.8033 8.73629 19.6908 8.6158 19.6381C5.22601 18.1572 2.85897 14.7576 2.89696 10.8196C2.94678 5.65166 7.16682 1.43854 12.3348 1.39673C17.618 1.35406 21.9297 5.63946 21.9297 10.913C21.9297 14.8115 19.573 18.1694 16.2096 19.6385C16.0891 19.6912 16.0065 19.804 15.9893 19.9344C15.9406 20.3034 15.8876 20.6787 15.8315 21.0518C15.8149 21.161 15.9206 21.2474 16.0247 21.2109C20.2725 19.7168 23.326 15.6651 23.326 10.9131C23.3257 4.88494 18.4132 -0.0172204 12.3814 4.54696e-05ZM12.1842 5.00654C15.5514 4.87618 18.3322 7.57755 18.3322 10.9163C18.3322 12.6143 17.6128 14.1472 16.463 15.2268C16.3655 15.3183 16.3131 15.4483 16.3206 15.5819C16.3435 15.988 16.3351 16.3827 16.3081 16.8284C16.3009 16.9471 16.434 17.023 16.5323 16.956C18.4605 15.6384 19.7286 13.4228 19.7286 10.9163C19.7286 6.78924 16.291 3.44989 12.1288 3.61121C8.26074 3.76117 5.15744 6.9503 5.10786 10.8211C5.0753 13.3668 6.35125 15.6221 8.30415 16.9563C8.40219 17.0232 8.53502 16.9473 8.52774 16.8286C8.50061 16.3827 8.49235 15.988 8.51516 15.5819C8.52269 15.4485 8.47039 15.3185 8.37309 15.2271C7.18741 14.1139 6.45929 12.5187 6.50566 10.7576C6.5873 7.65833 9.08605 5.12653 12.1842 5.00654Z" fill="#79A8F7"/>
</svg>
