<svg width="17" height="17" viewBox="0 0 17 17" fill="none" xmlns="http://www.w3.org/2000/svg">
<g clip-path="url(#clip0_1831_8232)">
<path d="M7 9L16.3333 13V14.3333H1V9H2.33333L5.33333 10.3327L7 9Z" stroke="#79A8F7" stroke-miterlimit="10" stroke-linecap="round" stroke-linejoin="round"/>
<path d="M1 13H16.3333" stroke="#79A8F7" stroke-miterlimit="10" stroke-linecap="round" stroke-linejoin="round"/>
<path d="M8.98509 10.0534C9.18015 9.85792 9.17982 9.54134 8.98436 9.34628C8.78889 9.15122 8.47231 9.15154 8.27725 9.34701L8.98509 10.0534ZM7.31258 10.3137L6.9594 10.6676L7.66724 11.374L8.02042 11.02L7.31258 10.3137ZM8.27725 9.34701L7.31258 10.3137L8.02042 11.02L8.98509 10.0534L8.27725 9.34701Z" fill="#79A8F7"/>
<path d="M10.3333 7.66616L1 3.66683V2.3335H16.3333V7.66683H15L12 6.3335L10.3333 7.66616Z" stroke="#79A8F7" stroke-miterlimit="10" stroke-linecap="round" stroke-linejoin="round"/>
<path d="M16.3333 3.6665H1" stroke="#79A8F7" stroke-miterlimit="10" stroke-linecap="round" stroke-linejoin="round"/>
<path d="M8.34762 6.61378C8.15263 6.80931 8.15306 7.12589 8.3486 7.32089C8.54413 7.51588 8.86071 7.51544 9.0557 7.31991L8.34762 6.61378ZM10.0204 6.35258L10.3734 5.99854L9.66535 5.29241L9.31229 5.64645L10.0204 6.35258ZM9.0557 7.31991L10.0204 6.35258L9.31229 5.64645L8.34762 6.61378L9.0557 7.31991Z" fill="#79A8F7"/>
</g>
<defs>
<clipPath id="clip0_1831_8232">
<rect width="16" height="16" fill="white" transform="translate(0.666504)"/>
</clipPath>
</defs>
</svg>
