<svg width="24" height="18" viewBox="0 0 24 18" fill="none" xmlns="http://www.w3.org/2000/svg">
<path fill-rule="evenodd" clip-rule="evenodd" d="M21.3766 1.15202C22.4093 1.42884 23.2225 2.24449 23.4985 3.28028C24 5.15759 24 9.07447 24 9.07447C24 9.07447 24 12.9913 23.4985 14.8688C23.2225 15.9044 22.4093 16.7201 21.3766 16.997C19.505 17.5 12 17.5 12 17.5C12 17.5 4.495 17.5 2.62335 16.997C1.59076 16.7201 0.777485 15.9044 0.501509 14.8688C0 12.9913 0 9.07447 0 9.07447C0 9.07447 0 5.15759 0.501509 3.28028C0.777485 2.24449 1.59076 1.42884 2.62335 1.15202C4.495 0.648937 12 0.648937 12 0.648937C12 0.648937 19.505 0.648937 21.3766 1.15202ZM15.8182 9.07463L9.54547 12.6307V5.51824L15.8182 9.07463Z" fill="#79A8F7"/>
</svg>
