<svg width="24" height="25" viewBox="0 0 24 25" fill="none" xmlns="http://www.w3.org/2000/svg">
<path fill-rule="evenodd" clip-rule="evenodd" d="M21.3766 3.96941C22.4093 4.24623 23.2225 5.06187 23.4985 6.09767C24 7.97497 24 11.8919 24 11.8919C24 11.8919 24 15.8087 23.4985 17.6862C23.2225 18.7218 22.4093 19.5375 21.3766 19.8144C19.505 20.3174 12 20.3174 12 20.3174C12 20.3174 4.495 20.3174 2.62335 19.8144C1.59076 19.5375 0.777485 18.7218 0.501509 17.6862C0 15.8087 0 11.8919 0 11.8919C0 11.8919 0 7.97497 0.501509 6.09767C0.777485 5.06187 1.59076 4.24623 2.62335 3.96941C4.495 3.46632 12 3.46632 12 3.46632C12 3.46632 19.505 3.46632 21.3766 3.96941ZM15.8182 11.892L9.54545 15.4481V8.33562L15.8182 11.892Z" fill="white"/>
</svg>
