<svg width="24" height="18" viewBox="0 0 24 18" fill="none" xmlns="http://www.w3.org/2000/svg">
<path fill-rule="evenodd" clip-rule="evenodd" d="M21.3766 0.969406C22.4093 1.24623 23.2225 2.06187 23.4985 3.09767C24 4.97497 24 8.89185 24 8.89185C24 8.89185 24 12.8087 23.4985 14.6862C23.2225 15.7218 22.4093 16.5375 21.3766 16.8144C19.505 17.3174 12 17.3174 12 17.3174C12 17.3174 4.495 17.3174 2.62335 16.8144C1.59076 16.5375 0.777485 15.7218 0.501509 14.6862C0 12.8087 0 8.89185 0 8.89185C0 8.89185 0 4.97497 0.501509 3.09767C0.777485 2.06187 1.59076 1.24623 2.62335 0.969406C4.495 0.46632 12 0.46632 12 0.46632C12 0.46632 19.505 0.46632 21.3766 0.969406ZM15.8182 8.89201L9.54545 12.4481V5.33562L15.8182 8.89201Z" fill="white"/>
</svg>
