<?xml version="1.0" encoding="utf-8"?><svg xmlns="http://www.w3.org/2000/svg" xmlns:xlink="http://www.w3.org/1999/xlink"><symbol fill="none" viewBox="0 0 18 16" id="LeftArrow" xmlns="http://www.w3.org/2000/svg"><path d="M.602 7.14 6.852.89a1.205 1.205 0 0 1 1.757 0c.508.47.508 1.29 0 1.758L4.508 6.75H16.5c.664 0 1.25.586 1.25 1.25 0 .703-.586 1.25-1.25 1.25H4.508l4.101 4.14c.508.47.508 1.29 0 1.758a1.205 1.205 0 0 1-1.757 0l-6.25-6.25a1.205 1.205 0 0 1 0-1.757Z" fill="#65010D"/></symbol><symbol fill="none" viewBox="0 0 15 10" id="arrow-right-blue" xmlns="http://www.w3.org/2000/svg"><path d="m10 1 4 4m0 0-4 4m4-4H0" stroke="#216EF2"/></symbol><symbol fill="none" viewBox="0 0 15 10" id="arrow-right-dark" xmlns="http://www.w3.org/2000/svg"><path d="m10 1 4 4m0 0-4 4m4-4H0" stroke="#001831"/></symbol><symbol fill="none" viewBox="0 0 15 10" id="arrow-right-dark-blue" xmlns="http://www.w3.org/2000/svg"><path d="m10 1 4 4m0 0-4 4m4-4H0" stroke="#113161"/></symbol><symbol fill="none" viewBox="0 0 15 10" id="arrow-right-green" xmlns="http://www.w3.org/2000/svg"><path d="m10 1 4 4m0 0-4 4m4-4H0" stroke="#ABF57A"/></symbol><symbol fill="none" viewBox="0 0 15 10" id="arrow-right-green-dark" xmlns="http://www.w3.org/2000/svg"><path d="m10 1 4 4m0 0-4 4m4-4H0" stroke="#65E411"/></symbol><symbol fill="none" viewBox="0 0 15 10" id="arrow-right-white" xmlns="http://www.w3.org/2000/svg"><path d="m10 1 4 4m0 0-4 4m4-4H0" stroke="#fff"/></symbol><symbol fill="none" viewBox="0 0 24 25" id="facebook" xmlns="http://www.w3.org/2000/svg"><g clip-path="url(#ga)"><path d="M24 12.725c0-6.627-5.373-12-12-12s-12 5.373-12 12c0 5.99 4.388 10.954 10.125 11.855v-8.386H7.078v-3.469h3.047v-2.643c0-3.008 1.792-4.67 4.533-4.67 1.313 0 2.686.235 2.686.235V8.6H15.83c-1.491 0-1.956.925-1.956 1.874v2.251h3.328l-.532 3.47h-2.796v8.385C19.612 23.68 24 18.715 24 12.725Z" fill="#fff"/></g><defs><clipPath id="ga"><path fill="#fff" transform="translate(0 .817)" d="M0 0h24v24H0z"/></clipPath></defs></symbol><symbol fill="none" viewBox="0 0 88 89" id="footer-netacea-logo" xmlns="http://www.w3.org/2000/svg"><path fill="#fff" d="M0 .817h88v88H0z"/><path d="M28.73 62.847h5.204v-23.04l-5.203-6.203v29.243ZM58.659 64.095V26.788h-5.252l-.009 25.693-21.56-25.694h-4.483L15.719 12.92h-1.813L67.44 76.718h1.81L58.659 64.095Z" fill="#001831"/></symbol><symbol fill="none" viewBox="0 0 24 25" id="linkedin" xmlns="http://www.w3.org/2000/svg"><g clip-path="url(#ja)"><path d="M20.45 21.065h-3.557V15.55c0-1.315-.024-3.008-1.85-3.008-1.851 0-2.135 1.433-2.135 2.912v5.61H9.352V9.724h3.414v1.55h.048a3.725 3.725 0 0 1 1.428-1.377 3.771 3.771 0 0 1 1.94-.455c3.604 0 4.269 2.348 4.269 5.401l-.002 6.22ZM5.34 8.175c-.409 0-.808-.12-1.147-.344a2.048 2.048 0 0 1-.76-.917 2.025 2.025 0 0 1 .447-2.226 2.083 2.083 0 0 1 2.249-.443c.377.154.7.416.926.752a2.029 2.029 0 0 1-.256 2.58 2.065 2.065 0 0 1-1.46.598Zm1.778 12.89h-3.56V9.725h3.56v11.34ZM22.222.819H1.771a1.76 1.76 0 0 0-1.244.493c-.332.322-.521.76-.527 1.22v20.333c.005.46.195.9.527 1.22.332.322.78.5 1.244.495h20.451c.465.006.914-.171 1.247-.493A1.73 1.73 0 0 0 24 22.865V2.53a1.73 1.73 0 0 0-.531-1.22 1.764 1.764 0 0 0-1.247-.492" fill="#fff"/></g><defs><clipPath id="ja"><path fill="#fff" transform="translate(0 .817)" d="M0 0h24v24H0z"/></clipPath></defs></symbol><symbol fill="none" viewBox="0 0 800 136" id="netacea-logo-dark" xmlns="http://www.w3.org/2000/svg"><g clip-path="url(#ka)" fill="#001831"><path d="M217.82 116.18h-57.08v17.52h57.08v-17.52Z"/><path d="M208.59 58h-53.85V19.58h63.08V1.88h-82.48V133.7h19.4v-58h53.85V58ZM660.22 116.18h-57.09v17.52h57.09v-17.52Z"/><path d="M577.75 5.46V133.7h19.38v-58H651V58h-53.87V19.58h63.09V1.88h-82.47v3.58ZM371.23 1.88 311.1 133.7h20.36l43.07-96.42h.94l23.17 51.6h-40.95l-7.21 16.19h55.31l12.95 28.63h20.34L379.34 1.88h-8.11ZM740.26 1.88h-8.11L672.02 133.7h20.36l43.07-96.42h.94l23.17 51.6h-40.95l-7.21 16.19h55.31l12.95 28.63H800L740.26 1.88ZM0 133.7h19.02V47.8L0 25.2v108.5ZM512.24 116.11l-.82.1v19a67.332 67.332 0 0 0 45-20.52L543 101.39a47.13 47.13 0 0 1-30.76 14.72Z"/><path d="M468.86 40.46c.54-.84 1.13-1.64 1.72-2.44.37-.5.72-1 1.11-1.52.39-.52.73-.85 1.09-1.27.69-.81 1.37-1.61 2.1-2.37l.4-.38a46.811 46.811 0 0 1 10.62-8.08c.14-.08.29-.14.42-.22 1.16-.62 2.32-1.21 3.54-1.74 1.22-.53 2.26-.91 3.41-1.31.22-.08.42-.17.65-.24a46.4 46.4 0 0 1 14.78-2.42 47.052 47.052 0 0 1 34.5 15.15l13.19-13.49c-1.11-1.12-2.3-2.15-3.49-3.19a66.126 66.126 0 0 0-3.5-2.84c-.53-.41-1.06-.81-1.6-1.19-.8-.59-1.63-1.15-2.44-1.71A68.51 68.51 0 0 0 508 0a67.78 67.78 0 0 0-2.62 135.51v-19.3c-.46 0-.91-.11-1.38-.16h-.48C479.07 113.48 461 92.34 461 67.6v-.22a49.542 49.542 0 0 1 7.6-26.48c.09-.15.17-.3.26-.44ZM235.08 5.46v14.12h34.28V133.7h19.58V1.88h-53.86v3.58ZM323.21 1.88h-28.27v17.7h28.27V1.88ZM93.78 1.88H90.2l-.03 93.93L11.36 1.88H0v13.86L98.97 133.7h10.44V1.88H93.78ZM0 133.7h19.02V46.3L0 23.63V133.7Z"/></g><defs><clipPath id="ka"><path fill="#fff" d="M0 0h800v135.51H0z"/></clipPath></defs></symbol><symbol fill="none" viewBox="0 0 24 25" id="podcast" xmlns="http://www.w3.org/2000/svg"><g clip-path="url(#la)"><path d="M14.66 15.215c-.466-.491-1.284-.806-2.25-.806-.965 0-1.783.315-2.249.806-.243.257-.371.52-.412.894-.078.725-.034 1.349.05 2.347.082.951.235 2.22.436 3.511.143.92.259 1.416.364 1.771.171.576.811 1.08 1.811 1.08 1 0 1.64-.504 1.812-1.08.105-.355.221-.851.364-1.77.2-1.293.354-2.56.435-3.512.085-.998.129-1.622.05-2.347a1.427 1.427 0 0 0-.411-.894ZM9.873 10.84a2.54 2.54 0 1 0 5.08 0 2.54 2.54 0 0 0-5.08 0ZM12.381.817C6.441.834 1.574 5.653 1.501 11.593c-.06 4.811 3.012 8.927 7.3 10.435.104.037.21-.05.194-.159a62.01 62.01 0 0 1-.158-1.118.376.376 0 0 0-.221-.296c-3.39-1.48-5.757-4.88-5.72-8.818.05-5.168 4.27-9.381 9.439-9.423 5.283-.043 9.595 4.243 9.595 9.516 0 3.899-2.357 7.257-5.72 8.726a.375.375 0 0 0-.22.296c-.05.369-.102.744-.159 1.117-.016.11.09.196.194.16 4.248-1.495 7.301-5.546 7.301-10.299C23.326 5.702 18.413.8 12.381.817Zm-.197 5.007a5.92 5.92 0 0 1 6.148 5.91c0 1.698-.72 3.23-1.869 4.31a.452.452 0 0 0-.142.355c.022.406.014.801-.013 1.247a.144.144 0 0 0 .224.127 7.308 7.308 0 0 0 3.197-6.04c0-4.126-3.438-7.466-7.6-7.304-3.868.15-6.972 3.339-7.021 7.21a7.307 7.307 0 0 0 3.196 6.135.144.144 0 0 0 .224-.128c-.027-.446-.036-.84-.013-1.247a.452.452 0 0 0-.142-.355 5.899 5.899 0 0 1-1.867-4.47c.081-3.098 2.58-5.63 5.678-5.75Z" fill="#fff"/></g><defs><clipPath id="la"><path fill="#fff" transform="translate(0 .817)" d="M0 0h24v24H0z"/></clipPath></defs></symbol><symbol fill="none" viewBox="0 0 24 25" id="twitter" xmlns="http://www.w3.org/2000/svg"><g clip-path="url(#ma)"><path d="m.058 2.317 9.267 12.39L0 24.78h2.099l8.163-8.82 6.596 8.82H24l-9.788-13.086 8.68-9.377h-2.1l-7.517 8.123L7.2 2.317H.058Zm3.087 1.546h3.28l14.488 19.371h-3.28L3.145 3.864Z" fill="#fff"/></g><defs><clipPath id="ma"><path fill="#fff" transform="translate(0 .817)" d="M0 0h24v24H0z"/></clipPath></defs></symbol><symbol fill="none" viewBox="0 0 24 25" id="youtube" xmlns="http://www.w3.org/2000/svg"><path fill-rule="evenodd" clip-rule="evenodd" d="M21.377 3.97a3.01 3.01 0 0 1 2.122 2.128C24 7.975 24 11.892 24 11.892s0 3.917-.502 5.794a3.01 3.01 0 0 1-2.121 2.128c-1.872.503-9.377.503-9.377.503s-7.505 0-9.377-.503a3.01 3.01 0 0 1-2.121-2.128C0 15.81 0 11.892 0 11.892s0-3.917.502-5.794a3.01 3.01 0 0 1 2.121-2.129C4.495 3.466 12 3.466 12 3.466s7.505 0 9.377.503Zm-5.559 7.922-6.273 3.556V8.336l6.273 3.556Z" fill="#fff"/></symbol></svg>