<?xml version="1.0" encoding="utf-8"?><svg xmlns="http://www.w3.org/2000/svg" xmlns:xlink="http://www.w3.org/1999/xlink"><symbol fill="none" viewBox="0 0 18 16" id="LeftArrow" xmlns="http://www.w3.org/2000/svg"><path d="M.602 7.14 6.852.89a1.205 1.205 0 0 1 1.757 0c.508.47.508 1.29 0 1.758L4.508 6.75H16.5c.664 0 1.25.586 1.25 1.25 0 .703-.586 1.25-1.25 1.25H4.508l4.101 4.14c.508.47.508 1.29 0 1.758a1.205 1.205 0 0 1-1.757 0l-6.25-6.25a1.205 1.205 0 0 1 0-1.757Z" fill="#65010D"/></symbol><symbol fill="none" viewBox="0 0 15 10" id="arrow-right-blue" xmlns="http://www.w3.org/2000/svg"><path d="m10 1 4 4m0 0-4 4m4-4H0" stroke="#216EF2"/></symbol><symbol fill="none" viewBox="0 0 15 10" id="arrow-right-dark" xmlns="http://www.w3.org/2000/svg"><path d="m10 1 4 4m0 0-4 4m4-4H0" stroke="#001831"/></symbol><symbol fill="none" viewBox="0 0 15 10" id="arrow-right-dark-blue" xmlns="http://www.w3.org/2000/svg"><path d="m10 1 4 4m0 0-4 4m4-4H0" stroke="#113161"/></symbol><symbol fill="none" viewBox="0 0 15 10" id="arrow-right-green" xmlns="http://www.w3.org/2000/svg"><path d="m10 1 4 4m0 0-4 4m4-4H0" stroke="#ABF57A"/></symbol><symbol fill="none" viewBox="0 0 15 10" id="arrow-right-green-dark" xmlns="http://www.w3.org/2000/svg"><path d="m10 1 4 4m0 0-4 4m4-4H0" stroke="#65E411"/></symbol><symbol fill="none" viewBox="0 0 15 10" id="arrow-right-white" xmlns="http://www.w3.org/2000/svg"><path d="m10 1 4 4m0 0-4 4m4-4H0" stroke="#fff"/></symbol></svg>