<?xml version="1.0" encoding="utf-8"?><svg xmlns="http://www.w3.org/2000/svg" xmlns:xlink="http://www.w3.org/1999/xlink"><symbol fill="none" viewBox="0 0 18 16" id="LeftArrow" xmlns="http://www.w3.org/2000/svg"><path d="M.602 7.14 6.852.89a1.205 1.205 0 0 1 1.757 0c.508.47.508 1.29 0 1.758L4.508 6.75H16.5c.664 0 1.25.586 1.25 1.25 0 .703-.586 1.25-1.25 1.25H4.508l4.101 4.14c.508.47.508 1.29 0 1.758a1.205 1.205 0 0 1-1.757 0l-6.25-6.25a1.205 1.205 0 0 1 0-1.757Z" fill="#65010D"/></symbol><symbol fill="none" viewBox="0 0 18 18" id="account-tackover" xmlns="http://www.w3.org/2000/svg"><path d="M6.267 7.4a2.4 2.4 0 1 0 4.8 0 2.4 2.4 0 0 0-4.8 0ZM2.566 14.176a10.353 10.353 0 0 1 6.1-1.976c2.279 0 4.387.733 6.1 1.976" stroke="#79A8F7"/><path d="M15.349 4.6A7.993 7.993 0 0 0 8.666 1a8 8 0 1 0 7.84 6.4" stroke="#79A8F7"/><path d="M15.467 1.4v3.2h-3.2" stroke="#79A8F7"/></symbol><symbol fill="none" viewBox="0 0 17 17" id="active-bot-protection" xmlns="http://www.w3.org/2000/svg"><path d="M1 4.571h15.238V16H1V4.57Z" stroke="#79A8F7"/><path d="M1 11.81h2.667l1.523 1.523h6.858l1.523-1.523h2.667M8.62 4.571V0M5.571 7.62v1.904M11.666 7.62v1.904" stroke="#79A8F7"/></symbol><symbol fill="none" viewBox="0 0 15 10" id="arrow-right-blue" xmlns="http://www.w3.org/2000/svg"><path d="m10 1 4 4m0 0-4 4m4-4H0" stroke="#216EF2"/></symbol><symbol fill="none" viewBox="0 0 15 10" id="arrow-right-dark" xmlns="http://www.w3.org/2000/svg"><path d="m10 1 4 4m0 0-4 4m4-4H0" stroke="#001831"/></symbol><symbol fill="none" viewBox="0 0 15 10" id="arrow-right-dark-blue" xmlns="http://www.w3.org/2000/svg"><path d="m10 1 4 4m0 0-4 4m4-4H0" stroke="#113161"/></symbol><symbol fill="none" viewBox="0 0 15 10" id="arrow-right-green" xmlns="http://www.w3.org/2000/svg"><path d="m10 1 4 4m0 0-4 4m4-4H0" stroke="#ABF57A"/></symbol><symbol fill="none" viewBox="0 0 15 10" id="arrow-right-green-dark" xmlns="http://www.w3.org/2000/svg"><path d="m10 1 4 4m0 0-4 4m4-4H0" stroke="#65E411"/></symbol><symbol fill="none" viewBox="0 0 15 10" id="arrow-right-white" xmlns="http://www.w3.org/2000/svg"><path d="m10 1 4 4m0 0-4 4m4-4H0" stroke="#fff"/></symbol><symbol fill="none" viewBox="0 0 18 18" id="bot-attack-intel" xmlns="http://www.w3.org/2000/svg"><path d="M1 2.6v3.2h3.2M17 15.4v-3.2h-3.2" stroke="#79A8F7"/><path d="M1 9a8 8 0 0 0 14.93 4M17 9A8 8 0 0 0 2.07 5" stroke="#79A8F7" stroke-linecap="square"/><path d="M5.675 11.958v-5.2h6.65v5.2h-6.65ZM9 4.758v2M7.833 8.558v1.6M10.166 8.558v1.6" stroke="#79A8F7"/></symbol><symbol fill="none" viewBox="0 0 16 17" id="bussiness-login-icon" xmlns="http://www.w3.org/2000/svg"><path d="M9.818 11.928a4 4 0 1 0-3.636 0v1.527h3.636v-1.527ZM2.545 2.91 3.636 4M12.364 4l1.09-1.09M8 .364v1.454M0 8.364h1.455M14.545 8.364H16M6.182 15.637h3.636" stroke="#79A8F7"/></symbol><symbol fill="none" viewBox="0 0 18 16" id="carding-fraud" xmlns="http://www.w3.org/2000/svg"><path d="M16.666.8h-16v14.4h16V.8ZM16.666 4h-16" stroke="#79A8F7"/><path d="m11.466 7.2 2.4 2.4-2.4 2.4M5.866 7.2l-2.4 2.4 2.4 2.4M9.866 6.4l-2.4 6.4" stroke="#79A8F7"/></symbol><symbol fill="none" viewBox="0 0 18 18" id="checklist-blue" xmlns="http://www.w3.org/2000/svg"><path d="M1 8.666a8 8 0 1 0 16 0 8 8 0 0 0-16 0Z" stroke="#216EF2"/><path d="m5.832 9.166 2.333 2 4-5" stroke="#216EF2"/></symbol><symbol fill="none" viewBox="0 0 18 18" id="checklist-cancel-icon" xmlns="http://www.w3.org/2000/svg"><path d="M1 9.15a8 8 0 1 0 16 0 8 8 0 0 0-16 0ZM6 6.15l6 6M12 6.15l-6 6" stroke="#79A8F7"/></symbol><symbol fill="none" viewBox="0 0 18 18" id="checklist-check-icon" xmlns="http://www.w3.org/2000/svg"><path d="M1 9.15a8 8 0 1 0 16 0 8 8 0 0 0-16 0Z" fill="#ABF57A" stroke="#001831"/><path d="m5.832 9.65 2.333 2 4-5" stroke="#001831"/></symbol><symbol fill="none" viewBox="0 0 18 18" id="checklist-green" xmlns="http://www.w3.org/2000/svg"><path d="M1 8.818a8 8 0 1 0 16 0 8 8 0 0 0-16 0Z" stroke="#ABF57A"/><path d="m5.832 9.318 2.333 2 4-5" stroke="#ABF57A"/></symbol><symbol fill="none" viewBox="0 0 17 16" id="chevron-down" xmlns="http://www.w3.org/2000/svg"><path d="m12.072 6-4 4-4-4" stroke="#fff"/></symbol><symbol fill="none" viewBox="0 0 18 16" id="credential-stuffing" xmlns="http://www.w3.org/2000/svg"><path d="M7.867 10.467h-7.2v-9.6h16v4.4M3.6 5.667H6M7.466 5.667h2.4M10.267 10.467h6.4v4h-6.4v-4Z" stroke="#79A8F7"/><path d="M11.466 10.467v-2.4a2 2 0 1 1 4 0v2.4" stroke="#79A8F7"/></symbol><symbol fill="none" viewBox="0 0 24 25" id="facebook" xmlns="http://www.w3.org/2000/svg"><g clip-path="url(#ata)"><path d="M24 12.725c0-6.627-5.373-12-12-12s-12 5.373-12 12c0 5.99 4.388 10.954 10.125 11.855v-8.386H7.078v-3.469h3.047v-2.643c0-3.008 1.792-4.67 4.533-4.67 1.313 0 2.686.235 2.686.235V8.6H15.83c-1.491 0-1.956.925-1.956 1.874v2.251h3.328l-.532 3.47h-2.796v8.385C19.612 23.68 24 18.715 24 12.725Z" fill="#fff"/></g><defs><clipPath id="ata"><path fill="#fff" transform="translate(0 .817)" d="M0 0h24v24H0z"/></clipPath></defs></symbol><symbol fill="none" viewBox="0 0 24 24" id="facebook-blue" xmlns="http://www.w3.org/2000/svg"><path d="M24 11.908c0-6.628-5.373-12-12-12s-12 5.372-12 12c0 5.99 4.388 10.954 10.125 11.854v-8.385H7.078v-3.47h3.047V9.265c0-3.007 1.792-4.669 4.533-4.669 1.313 0 2.686.235 2.686.235v2.953H15.83c-1.491 0-1.956.925-1.956 1.874v2.25h3.328l-.532 3.47h-2.796v8.385C19.612 22.862 24 17.898 24 11.908Z" fill="#79A8F7"/></symbol><symbol fill="none" viewBox="0 0 270 270" id="footer-netace-blue-logo" xmlns="http://www.w3.org/2000/svg"><path fill="#216EF2" d="M0 0h270v270H0z"/><path fill-rule="evenodd" clip-rule="evenodd" d="M189.058 70.586v128.828l36.623 43.644h-6.537L37.8 26.942h6.538L80.96 70.586h16.181l72.9 86.882.039-86.882h18.977ZM99.746 199.414H80.96V89.274l18.785 22.41v87.73Z" fill="#fff"/></symbol><symbol fill="none" viewBox="0 0 88 89" id="footer-netacea-logo" xmlns="http://www.w3.org/2000/svg"><path fill="#fff" d="M0 .817h88v88H0z"/><path d="M28.73 62.847h5.204v-23.04l-5.203-6.203v29.243ZM58.659 64.095V26.788h-5.252l-.009 25.693-21.56-25.694h-4.483L15.719 12.92h-1.813L67.44 76.718h1.81L58.659 64.095Z" fill="#001831"/></symbol><symbol fill="none" viewBox="0 0 24 25" id="linkedin" xmlns="http://www.w3.org/2000/svg"><g clip-path="url(#axa)"><path d="M20.45 21.065h-3.557V15.55c0-1.315-.024-3.008-1.85-3.008-1.851 0-2.135 1.433-2.135 2.912v5.61H9.352V9.724h3.414v1.55h.048a3.725 3.725 0 0 1 1.428-1.377 3.771 3.771 0 0 1 1.94-.455c3.604 0 4.269 2.348 4.269 5.401l-.002 6.22ZM5.34 8.175c-.409 0-.808-.12-1.147-.344a2.048 2.048 0 0 1-.76-.917 2.025 2.025 0 0 1 .447-2.226 2.083 2.083 0 0 1 2.249-.443c.377.154.7.416.926.752a2.029 2.029 0 0 1-.256 2.58 2.065 2.065 0 0 1-1.46.598Zm1.778 12.89h-3.56V9.725h3.56v11.34ZM22.222.819H1.771a1.76 1.76 0 0 0-1.244.493c-.332.322-.521.76-.527 1.22v20.333c.005.46.195.9.527 1.22.332.322.78.5 1.244.495h20.451c.465.006.914-.171 1.247-.493A1.73 1.73 0 0 0 24 22.865V2.53a1.73 1.73 0 0 0-.531-1.22 1.764 1.764 0 0 0-1.247-.492" fill="#fff"/></g><defs><clipPath id="axa"><path fill="#fff" transform="translate(0 .817)" d="M0 0h24v24H0z"/></clipPath></defs></symbol><symbol fill="none" viewBox="0 0 24 24" id="linkedin-blue" xmlns="http://www.w3.org/2000/svg"><g clip-path="url(#awa)"><path d="M20.45 20.247h-3.557v-5.514c0-1.314-.024-3.007-1.85-3.007-1.851 0-2.135 1.432-2.135 2.912v5.61H9.352V8.907h3.414v1.55h.048a3.725 3.725 0 0 1 1.428-1.377 3.771 3.771 0 0 1 1.94-.455c3.604 0 4.269 2.347 4.269 5.401l-.002 6.22ZM5.34 7.358c-.409 0-.808-.12-1.147-.344a2.048 2.048 0 0 1-.76-.917A2.025 2.025 0 0 1 3.88 3.87a2.083 2.083 0 0 1 2.249-.443c.377.154.7.416.926.752a2.029 2.029 0 0 1-.256 2.58 2.065 2.065 0 0 1-1.46.599Zm1.778 12.89h-3.56V8.907h3.56v11.34ZM22.222.002H1.771A1.76 1.76 0 0 0 .527.495C.195.816.006 1.255 0 1.715v20.333c.005.46.195.899.527 1.22.332.322.78.5 1.244.495h20.451c.465.005.914-.172 1.247-.493A1.73 1.73 0 0 0 24 22.048V1.713a1.73 1.73 0 0 0-.531-1.22A1.764 1.764 0 0 0 22.222 0" fill="#79A8F7"/></g><defs><clipPath id="awa"><path fill="#fff" d="M0 0h24v24H0z"/></clipPath></defs></symbol><symbol fill="none" viewBox="0 0 17 18" id="marketing-analytics" xmlns="http://www.w3.org/2000/svg"><path d="M1.056 17.275v-2.337H6.12v2.337M6.12 17.275v-5.453h5.062v5.453M11.182 17.275V8.707h4.673v8.568M.667 10.92l15.438-8.912M12.343 1l3.762 1.008-1.008 3.762" stroke="#79A8F7"/></symbol><symbol fill="none" viewBox="0 0 119 20" id="navbar-logo" xmlns="http://www.w3.org/2000/svg"><g clip-path="url(#aza)" fill="#fff"><path d="M32.148 17.147h-8.424v2.586h8.424v-2.586Z"/><path d="M30.786 8.56h-7.948V2.89h9.31V.277H19.975v19.456h2.863v-8.56h7.948V8.56ZM97.443 17.147h-8.426v2.586h8.426v-2.586Z"/><path d="M85.27.806v18.927h2.86v-8.56h7.952V8.56H88.13V2.89h9.311V.277H85.271v.529ZM54.79.277l-8.875 19.456h3.005l6.357-14.23h.139l3.42 7.615H52.79l-1.064 2.39h8.163l1.912 4.225h3.002L55.987.277H54.79ZM109.255.277h-1.197l-8.874 19.456h3.005l6.356-14.23h.139l3.42 7.615h-6.044l-1.064 2.39h8.163l1.911 4.225h3.002L109.255.277ZM0 19.733h2.807V7.055L0 3.719v16.014ZM75.602 17.137l-.121.015v2.804a9.937 9.937 0 0 0 6.641-3.029l-1.98-1.963a6.956 6.956 0 0 1-4.54 2.173Z"/><path d="M69.2 5.972c.079-.124.166-.243.253-.36.055-.074.106-.148.164-.225.057-.077.108-.125.16-.187.103-.12.203-.238.31-.35l.06-.056A6.91 6.91 0 0 1 71.714 3.6c.02-.012.043-.02.062-.032a7.13 7.13 0 0 1 .523-.257c.18-.078.333-.134.503-.193.032-.012.062-.026.096-.036a6.848 6.848 0 0 1 2.181-.357 6.944 6.944 0 0 1 5.092 2.236l1.947-1.991c-.164-.165-.34-.317-.515-.47a9.726 9.726 0 0 0-.753-.596c-.118-.087-.24-.17-.36-.252A10.111 10.111 0 0 0 74.976 0a10.004 10.004 0 0 0-.387 20v-2.849c-.068 0-.134-.016-.203-.023h-.071c-3.609-.38-6.276-3.5-6.276-7.15v-.033a7.312 7.312 0 0 1 1.122-3.909l.038-.064ZM34.695.806V2.89h5.06v16.843h2.89V.277h-7.95v.529ZM47.703.277H43.53V2.89h4.173V.277ZM13.841.277h-.528l-.005 13.864L1.677.277H0v2.046l14.607 17.41h1.54V.277h-2.306ZM0 19.733h2.807v-12.9L0 3.489v16.245Z"/></g><defs><clipPath id="aza"><path fill="#fff" d="M0 0h118.073v20H0z"/></clipPath></defs></symbol><symbol fill="none" viewBox="0 0 15 15" id="navbar-search-icon" xmlns="http://www.w3.org/2000/svg"><path d="M1 6.5a5.5 5.5 0 1 0 11 0 5.5 5.5 0 0 0-11 0ZM10.5 10.5l3.833 3.833" stroke="#ABF57A"/></symbol><symbol fill="none" viewBox="0 0 800 136" id="netacea-logo-dark" xmlns="http://www.w3.org/2000/svg"><g clip-path="url(#bba)" fill="#001831"><path d="M217.82 116.18h-57.08v17.52h57.08v-17.52Z"/><path d="M208.59 58h-53.85V19.58h63.08V1.88h-82.48V133.7h19.4v-58h53.85V58ZM660.22 116.18h-57.09v17.52h57.09v-17.52Z"/><path d="M577.75 5.46V133.7h19.38v-58H651V58h-53.87V19.58h63.09V1.88h-82.47v3.58ZM371.23 1.88 311.1 133.7h20.36l43.07-96.42h.94l23.17 51.6h-40.95l-7.21 16.19h55.31l12.95 28.63h20.34L379.34 1.88h-8.11ZM740.26 1.88h-8.11L672.02 133.7h20.36l43.07-96.42h.94l23.17 51.6h-40.95l-7.21 16.19h55.31l12.95 28.63H800L740.26 1.88ZM0 133.7h19.02V47.8L0 25.2v108.5ZM512.24 116.11l-.82.1v19a67.332 67.332 0 0 0 45-20.52L543 101.39a47.13 47.13 0 0 1-30.76 14.72Z"/><path d="M468.86 40.46c.54-.84 1.13-1.64 1.72-2.44.37-.5.72-1 1.11-1.52.39-.52.73-.85 1.09-1.27.69-.81 1.37-1.61 2.1-2.37l.4-.38a46.811 46.811 0 0 1 10.62-8.08c.14-.08.29-.14.42-.22 1.16-.62 2.32-1.21 3.54-1.74 1.22-.53 2.26-.91 3.41-1.31.22-.08.42-.17.65-.24a46.4 46.4 0 0 1 14.78-2.42 47.052 47.052 0 0 1 34.5 15.15l13.19-13.49c-1.11-1.12-2.3-2.15-3.49-3.19a66.126 66.126 0 0 0-3.5-2.84c-.53-.41-1.06-.81-1.6-1.19-.8-.59-1.63-1.15-2.44-1.71A68.51 68.51 0 0 0 508 0a67.78 67.78 0 0 0-2.62 135.51v-19.3c-.46 0-.91-.11-1.38-.16h-.48C479.07 113.48 461 92.34 461 67.6v-.22a49.542 49.542 0 0 1 7.6-26.48c.09-.15.17-.3.26-.44ZM235.08 5.46v14.12h34.28V133.7h19.58V1.88h-53.86v3.58ZM323.21 1.88h-28.27v17.7h28.27V1.88ZM93.78 1.88H90.2l-.03 93.93L11.36 1.88H0v13.86L98.97 133.7h10.44V1.88H93.78ZM0 133.7h19.02V46.3L0 23.63V133.7Z"/></g><defs><clipPath id="bba"><path fill="#fff" d="M0 0h800v135.51H0z"/></clipPath></defs></symbol><symbol fill="none" viewBox="0 0 24 25" id="podcast" xmlns="http://www.w3.org/2000/svg"><g clip-path="url(#bda)"><path d="M14.66 15.215c-.466-.491-1.284-.806-2.25-.806-.965 0-1.783.315-2.249.806-.243.257-.371.52-.412.894-.078.725-.034 1.349.05 2.347.082.951.235 2.22.436 3.511.143.92.259 1.416.364 1.771.171.576.811 1.08 1.811 1.08 1 0 1.64-.504 1.812-1.08.105-.355.221-.851.364-1.77.2-1.293.354-2.56.435-3.512.085-.998.129-1.622.05-2.347a1.427 1.427 0 0 0-.411-.894ZM9.873 10.84a2.54 2.54 0 1 0 5.08 0 2.54 2.54 0 0 0-5.08 0ZM12.381.817C6.441.834 1.574 5.653 1.501 11.593c-.06 4.811 3.012 8.927 7.3 10.435.104.037.21-.05.194-.159a62.01 62.01 0 0 1-.158-1.118.376.376 0 0 0-.221-.296c-3.39-1.48-5.757-4.88-5.72-8.818.05-5.168 4.27-9.381 9.439-9.423 5.283-.043 9.595 4.243 9.595 9.516 0 3.899-2.357 7.257-5.72 8.726a.375.375 0 0 0-.22.296c-.05.369-.102.744-.159 1.117-.016.11.09.196.194.16 4.248-1.495 7.301-5.546 7.301-10.299C23.326 5.702 18.413.8 12.381.817Zm-.197 5.007a5.92 5.92 0 0 1 6.148 5.91c0 1.698-.72 3.23-1.869 4.31a.452.452 0 0 0-.142.355c.022.406.014.801-.013 1.247a.144.144 0 0 0 .224.127 7.308 7.308 0 0 0 3.197-6.04c0-4.126-3.438-7.466-7.6-7.304-3.868.15-6.972 3.339-7.021 7.21a7.307 7.307 0 0 0 3.196 6.135.144.144 0 0 0 .224-.128c-.027-.446-.036-.84-.013-1.247a.452.452 0 0 0-.142-.355 5.899 5.899 0 0 1-1.867-4.47c.081-3.098 2.58-5.63 5.678-5.75Z" fill="#fff"/></g><defs><clipPath id="bda"><path fill="#fff" transform="translate(0 .817)" d="M0 0h24v24H0z"/></clipPath></defs></symbol><symbol fill="none" viewBox="0 0 24 24" id="podcast-blue" xmlns="http://www.w3.org/2000/svg"><path d="M14.66 14.398c-.466-.492-1.284-.807-2.25-.807-.965 0-1.783.315-2.249.807-.243.256-.371.519-.412.893-.078.725-.034 1.35.05 2.348.082.95.235 2.22.436 3.51.143.92.259 1.416.364 1.772.171.576.811 1.079 1.812 1.079 1 0 1.64-.504 1.81-1.08.106-.355.222-.85.365-1.77.2-1.292.354-2.56.435-3.511.085-.998.129-1.623.05-2.348a1.426 1.426 0 0 0-.411-.893Zm-4.787-4.375a2.54 2.54 0 1 0 5.08 0 2.54 2.54 0 0 0-5.08 0ZM12.381 0C6.441.017 1.574 4.836 1.501 10.775c-.06 4.812 3.012 8.927 7.3 10.436.104.036.21-.05.194-.16-.057-.373-.11-.748-.158-1.117a.376.376 0 0 0-.221-.296c-3.39-1.48-5.757-4.88-5.719-8.818.05-5.168 4.27-9.381 9.438-9.423 5.283-.043 9.595 4.242 9.595 9.516 0 3.899-2.357 7.256-5.72 8.726a.375.375 0 0 0-.22.295c-.05.37-.102.745-.159 1.118-.016.109.09.195.194.159 4.248-1.494 7.301-5.546 7.301-10.298 0-6.028-4.913-10.93-10.945-10.913Zm-.197 5.007a5.92 5.92 0 0 1 6.148 5.91c0 1.697-.72 3.23-1.869 4.31a.453.453 0 0 0-.142.355c.022.406.014.8-.013 1.246a.144.144 0 0 0 .224.128 7.308 7.308 0 0 0 3.197-6.04c0-4.127-3.438-7.466-7.6-7.305-3.868.15-6.972 3.34-7.021 7.21a7.308 7.308 0 0 0 3.196 6.135.144.144 0 0 0 .224-.127c-.027-.446-.036-.841-.013-1.247a.452.452 0 0 0-.142-.355 5.899 5.899 0 0 1-1.867-4.47c.081-3.099 2.58-5.63 5.678-5.75Z" fill="#79A8F7"/></symbol><symbol fill="none" viewBox="0 0 17 17" id="scaper-icon" xmlns="http://www.w3.org/2000/svg"><g clip-path="url(#bea)"><path d="m7 9 9.333 4v1.333H1V9h1.333l3 1.333L7 9ZM1 13h15.333" stroke="#79A8F7" stroke-miterlimit="10" stroke-linecap="round" stroke-linejoin="round"/><path d="M8.985 10.053a.5.5 0 0 0-.708-.706l.708.706Zm-1.672.26-.354.355.708.706.353-.354-.707-.706Zm.964-.966-.964.967.707.706.965-.967-.708-.706Z" fill="#79A8F7"/><path d="M10.333 7.666 1 3.666V2.334h15.333v5.334H15l-3-1.333-1.667 1.332ZM16.333 3.667H1" stroke="#79A8F7" stroke-miterlimit="10" stroke-linecap="round" stroke-linejoin="round"/><path d="M8.348 6.614a.5.5 0 1 0 .708.706l-.708-.706Zm1.672-.261.353-.354-.708-.707-.353.354.708.707Zm-.964.967.964-.967-.708-.707-.964.968.708.706Z" fill="#79A8F7"/></g><defs><clipPath id="bea"><path fill="#fff" transform="translate(.667)" d="M0 0h16v16H0z"/></clipPath></defs></symbol><symbol fill="none" viewBox="0 0 32 33" id="slider-arrow-green" xmlns="http://www.w3.org/2000/svg"><g filter="url(#bfa)" stroke="#ABF57A"><rect x=".5" y="1.151" width="31" height="31" rx="3.5"/><path d="m13 12.65-4 4m0 0 4 4m-4-4h14"/></g><defs><filter id="bfa" x="-16" y="-15.349" width="64" height="64" filterUnits="userSpaceOnUse" color-interpolation-filters="sRGB"><feFlood flood-opacity="0" result="BackgroundImageFix"/><feGaussianBlur in="BackgroundImageFix" stdDeviation="8"/><feComposite in2="SourceAlpha" operator="in" result="effect1_backgroundBlur_3494_1327"/><feBlend in="SourceGraphic" in2="effect1_backgroundBlur_3494_1327" result="shape"/></filter></defs></symbol><symbol fill="none" viewBox="0 0 24 23" id="twitter" xmlns="http://www.w3.org/2000/svg"><path d="m.058.317 9.267 12.39L0 22.78h2.099l8.163-8.82 6.596 8.82H24L14.212 9.694l8.68-9.377h-2.1L13.276 8.44 7.2.317H.058Zm3.087 1.546h3.28l14.488 19.371h-3.28L3.145 1.864Z" fill="#fff"/></symbol><symbol fill="none" viewBox="0 0 24 24" id="twitter-blue" xmlns="http://www.w3.org/2000/svg"><path d="m.058 1.5 9.267 12.39L0 23.962h2.099l8.163-8.82 6.596 8.82H24l-9.788-13.087 8.68-9.376h-2.1l-7.517 8.122L7.2 1.5H.058Zm3.087 1.546h3.28l14.488 19.37h-3.28L3.145 3.047Z" fill="#79A8F7"/></symbol><symbol fill="none" viewBox="0 0 175 175" id="video-play-icon" xmlns="http://www.w3.org/2000/svg"><circle cx="87.625" cy="87.018" r="87" fill="#113161" fill-opacity=".5"/><circle cx="87.625" cy="87.018" r="86.5" stroke="url(#bia)" stroke-opacity=".5" style="mix-blend-mode:screen"/><circle cx="87.625" cy="87.018" r="86.5" stroke="url(#bib)" stroke-opacity=".5"/><circle cx="87.625" cy="87.018" r="86.5" stroke="url(#bic)" stroke-opacity=".5"/><circle cx="87.625" cy="87.018" r="73" fill="#113161"/><circle cx="87.625" cy="87.018" r="72.5" stroke="url(#bid)" stroke-opacity=".5" style="mix-blend-mode:screen"/><circle cx="87.625" cy="87.018" r="72.5" stroke="url(#bie)" stroke-opacity=".5"/><circle cx="87.625" cy="87.018" r="72.5" stroke="url(#bif)" stroke-opacity=".5"/><path fill-rule="evenodd" clip-rule="evenodd" d="M87.17 120.106c18.525 0 33.543-15.018 33.543-33.544 0-18.526-15.018-33.544-33.544-33.544-18.526 0-33.544 15.018-33.544 33.544 0 18.526 15.018 33.544 33.544 33.544Zm14.137-31.431c1.417-.803 1.417-2.845 0-3.648L81.63 73.877c-1.397-.792-3.13.217-3.13 1.824V98c0 1.606 1.733 2.616 3.13 1.824l19.677-11.15Z" fill="#ABF57A"/><defs><linearGradient id="bia" x1="247.683" y1="100.155" x2="215.133" y2="70.63" gradientUnits="userSpaceOnUse"><stop stop-color="#367CF3"/><stop offset="1" stop-color="#367CF3" stop-opacity="0"/></linearGradient><linearGradient id="bib" x1="-20.846" y1="-27.133" x2="33.096" y2="29.488" gradientUnits="userSpaceOnUse"><stop stop-color="#367CF3"/><stop offset="1" stop-color="#367CF3" stop-opacity="0"/></linearGradient><linearGradient id="bic" x1="-43.712" y1="123.803" x2="32.982" y2="126.733" gradientUnits="userSpaceOnUse"><stop stop-color="#367CF3"/><stop offset="1" stop-color="#367CF3" stop-opacity="0"/></linearGradient><linearGradient id="bid" x1="221.926" y1="98.041" x2="194.615" y2="73.267" gradientUnits="userSpaceOnUse"><stop stop-color="#367CF3"/><stop offset="1" stop-color="#367CF3" stop-opacity="0"/></linearGradient><linearGradient id="bie" x1="-3.391" y1="-8.764" x2="41.871" y2="38.745" gradientUnits="userSpaceOnUse"><stop stop-color="#367CF3"/><stop offset="1" stop-color="#367CF3" stop-opacity="0"/></linearGradient><linearGradient id="bif" x1="-22.577" y1="117.883" x2="41.775" y2="120.342" gradientUnits="userSpaceOnUse"><stop stop-color="#367CF3"/><stop offset="1" stop-color="#367CF3" stop-opacity="0"/></linearGradient></defs></symbol><symbol fill="none" viewBox="0 0 24 18" id="youtube" xmlns="http://www.w3.org/2000/svg"><path fill-rule="evenodd" clip-rule="evenodd" d="M21.377.97a3.01 3.01 0 0 1 2.122 2.128C24 4.975 24 8.892 24 8.892s0 3.917-.502 5.794a3.01 3.01 0 0 1-2.121 2.128c-1.872.503-9.377.503-9.377.503s-7.505 0-9.377-.503a3.01 3.01 0 0 1-2.121-2.128C0 12.81 0 8.892 0 8.892s0-3.917.502-5.794A3.01 3.01 0 0 1 2.623.969C4.495.466 12 .466 12 .466s7.505 0 9.377.503Zm-5.559 7.922-6.273 3.556V5.336l6.273 3.556Z" fill="#fff"/></symbol><symbol fill="none" viewBox="0 0 24 18" id="youtube-blue" xmlns="http://www.w3.org/2000/svg"><path fill-rule="evenodd" clip-rule="evenodd" d="M21.377 1.152a3.01 3.01 0 0 1 2.122 2.128C24 5.158 24 9.074 24 9.074s0 3.917-.502 5.795a3.01 3.01 0 0 1-2.121 2.128C19.505 17.5 12 17.5 12 17.5s-7.505 0-9.377-.503a3.01 3.01 0 0 1-2.121-2.128C0 12.99 0 9.074 0 9.074S0 5.158.502 3.28a3.01 3.01 0 0 1 2.121-2.128C4.495.649 12 .649 12 .649s7.505 0 9.377.503Zm-5.559 7.923L9.545 12.63V5.518l6.273 3.557Z" fill="#79A8F7"/></symbol></svg>